<?xml version="1.0" standalone="no"?>
<!DOCTYPE svg PUBLIC "-//W3C//DTD SVG 20010904//EN"
 "http://www.w3.org/TR/2001/REC-SVG-20010904/DTD/svg10.dtd">
<svg version="1.0" xmlns="http://www.w3.org/2000/svg"
 width="500.000000pt" height="500.000000pt" viewBox="0 0 500.000000 500.000000"
 preserveAspectRatio="xMidYMid meet">
<metadata>
Created by potrace 1.14, written by Peter Selinger 2001-2017
</metadata>
<g transform="translate(0.000000,500.000000) scale(0.100000,-0.100000)"
fill="#000000" stroke="none">
<path d="M3719 3650 c-893 -49 -2438 -392 -3047 -676 -127 -59 -207 -109 -271
-168 -71 -68 -95 -115 -88 -179 11 -123 133 -184 388 -194 296 -12 690 53
1129 185 91 28 177 55 192 61 71 27 90 100 39 152 -16 16 -39 29 -51 29 -12 0
-79 -18 -149 -41 -367 -118 -736 -192 -1025 -206 -138 -6 -290 8 -322 31 -15
12 -10 18 48 59 243 174 840 365 1718 552 664 141 1132 204 1565 212 303 5
420 -5 547 -47 138 -47 159 -95 87 -193 -181 -244 -830 -539 -1599 -727 -191
-46 -602 -132 -608 -126 -5 6 172 353 302 591 65 119 116 222 116 237 0 15
-11 40 -24 55 -33 38 -95 37 -159 0 -65 -38 -164 -137 -173 -171 -7 -30 17
-96 36 -96 6 0 -41 -100 -104 -222 -63 -123 -137 -275 -166 -339 l-52 -115
-102 -33 c-199 -65 -332 -145 -370 -225 -51 -108 26 -224 195 -293 l65 -27 0
-136 c-1 -150 11 -192 64 -230 50 -35 83 -36 121 -2 45 41 46 86 0 137 -31 36
-33 41 -29 101 2 35 7 66 10 69 3 4 58 -5 122 -20 145 -32 381 -69 591 -92
202 -22 722 -25 830 -5 166 31 241 74 252 144 5 32 1 41 -25 68 -43 42 -93 42
-133 -1 -16 -18 -45 -35 -66 -40 -209 -47 -1001 11 -1416 105 -89 20 -102 26
-99 42 2 10 27 77 55 147 36 94 56 131 71 137 12 4 100 24 196 45 431 91 555
120 719 165 1091 298 1739 729 1582 1053 -85 176 -427 256 -962 227z m-1769
-1567 c0 -13 -53 -157 -61 -166 -10 -13 -139 51 -139 68 0 8 41 34 93 60 94
46 107 51 107 38z"/>
</g>
</svg>
